# xmcd
#
# Track frame offsets:
#	150
#	11152
#	20859
#	31225
#	61871
#	73353
#	83876
#	92165
#	104071
#	119501
#	126891
#	139251
#	148518
#	163937
#
# Disc length: 2724 seconds
#
# Revision: 0
# Processed by: cddbd v1.5.2PL0 Copyright (c) Steve Scherf et al.
# Submitted via: dBpowerAMP V4.0
#
DISCID=d50aa20e
DTITLE=Fats Domino - Golden Legends Fats Domino Live
DYEAR=2005
DGENRE=R&B
TTITLE0=Blueberry Hill
TTITLE1=I'm Walking To New Orleans
TTITLE2=Ain't That A Shame
TTITLE3=Let The Four Winds Blow
TTITLE4=I'm Walkin'
TTITLE5=I'm Gonna Be A Wheel Someday
TTITLE6=Hello Josephine
TTITLE7=I Want To Walk With You
TTITLE8=I'm In Love Again
TTITLE9=When The Saints Go Marching In
TTITLE10=When My Dream Boat Comes Home
TTITLE11=My Blue Heaven
TTITLE12=Your Cheating Heart
TTITLE13=Jambalaya (On The Bayou)
EXTD=
EXTT0=
EXTT1=
EXTT2=
EXTT3=
EXTT4=
EXTT5=
EXTT6=
EXTT7=
EXTT8=
EXTT9=
EXTT10=
EXTT11=
EXTT12=
EXTT13=
PLAYORDER=
